<svg xmlns="http://www.w3.org/2000/svg" fill="none" viewBox="0 0 93 93"><circle cx="46.5" cy="46.5" r="46.5" fill="#362B48"/><path fill="#fff" d="M36.067 42.185a3.121 3.121 0 0 0-3.124 3.125 3.121 3.121 0 0 0 3.124 3.124 3.121 3.121 0 0 0 3.125-3.124 3.121 3.121 0 0 0-3.125-3.125Zm10.936 0a3.121 3.121 0 0 0-3.124 3.125 3.121 3.121 0 0 0 3.124 3.124 3.121 3.121 0 0 0 3.125-3.124 3.121 3.121 0 0 0-3.125-3.125Zm10.936 0a3.121 3.121 0 0 0-3.124 3.125 3.121 3.121 0 0 0 3.124 3.124 3.121 3.121 0 0 0 3.125-3.124 3.121 3.121 0 0 0-3.125-3.125ZM47.003 25c-13.807 0-24.997 9.09-24.997 20.31 0 4.648 1.944 8.905 5.166 12.332-1.455 3.847-4.482 7.109-4.53 7.148a2.343 2.343 0 0 0 1.708 3.954c6.005 0 10.74-2.51 13.582-4.52a30.155 30.155 0 0 0 9.071 1.396C60.81 65.62 72 56.53 72 45.31 72 34.09 60.81 25 47.003 25Zm0 35.933c-2.607 0-5.185-.4-7.655-1.182l-2.216-.703-1.905 1.348c-1.396.986-3.31 2.09-5.614 2.831.713-1.181 1.406-2.509 1.943-3.925l1.035-2.744-2.011-2.128c-1.768-1.885-3.887-5-3.887-9.12 0-8.612 9.11-15.623 20.31-15.623s20.31 7.01 20.31 15.623c0 8.612-9.11 15.623-20.31 15.623Z"/></svg>