<svg width="68" height="69" viewBox="0 0 68 69" fill="none" xmlns="http://www.w3.org/2000/svg">
<path id="&#235;&#178;&#160;&#237;&#132;&#176;&#235;&#166;&#172;" d="M45.0226 8.37445L49.9723 13.3242L52.4472 10.8493L57.397 15.7991L54.9221 18.2739L59.8718 23.2237L22.7487 60.3468L7.89949 45.4976L45.0226 8.37445ZM41.3103 2.18727L1.71231 41.7852C-0.337968 43.8355 -0.337968 47.1596 1.71231 49.2099L19.0364 66.534C21.0867 68.5843 24.4108 68.5843 26.461 66.534L66.059 26.936C68.1093 24.8857 68.1093 21.5617 66.059 19.5114L64.8216 18.2739L65.4403 17.6552C66.4654 16.6301 66.4654 14.9681 65.4403 13.9429L54.3034 2.80599C53.2782 1.78085 51.6162 1.78085 50.5911 2.80599L49.9723 3.42471L48.7349 2.18727C46.6846 0.136991 43.3606 0.136993 41.3103 2.18727ZM45.0226 13.3242L12.8492 45.4976L22.7487 55.3971L54.9221 23.2237L45.0226 13.3242Z" fill="#1833DB"/>
</svg>
