<svg width="53" height="47" viewBox="0 0 53 47" fill="none" xmlns="http://www.w3.org/2000/svg">
<rect width="53" height="47" fill="#929292"/>
<g id="Frame 1">
<rect width="1056" height="1003" transform="translate(-51 -331)" fill="#362B48"/>
<g id="&#235;&#172;&#188;&#237;&#146;&#136; &#235;&#170;&#169;&#235;&#161;&#157;" filter="url(#filter0_d_0_1)">
<rect x="-15" y="-18" width="336" height="83" rx="20" fill="white" shape-rendering="crispEdges"/>
<g id="Group 22">
<g id="&#240;&#159;&#166;&#134; icon &#34;Umbrella&#34;">
<path id="Vector" d="M52.8569 25.7816C50.231 13.2672 40.1497 5.74761 29.3798 4.58156V2.93807C29.3798 1.31295 28.0669 0 26.4418 0C24.8167 0 23.5037 1.31295 23.5037 2.93807V4.58156C12.6971 5.74761 2.70765 13.2672 0.0266548 25.7816C-0.175338 26.7089 0.807081 27.7373 1.74359 26.8283C6.51796 21.7785 11.632 22.0172 16.3054 30.2254C16.792 31.0977 17.6735 31.015 18.1142 30.2254C19.9688 26.9752 22.2367 23.5046 26.4418 23.5046C31.8129 23.5046 34.5398 29.8215 34.7694 30.2254C35.2101 31.015 36.0915 31.0977 36.5781 30.2254C41.2607 22.008 46.4115 21.8336 51.14 26.8283C52.0857 27.7464 53.0589 26.7089 52.8569 25.7816ZM23.5037 27.7005V39.664C23.5037 40.472 22.8426 41.133 22.0347 41.133C21.3185 41.133 20.8227 40.6464 20.6483 40.1506C20.1066 38.6173 18.4355 37.8185 16.9022 38.3602C15.3689 38.9019 14.5701 40.5821 15.1118 42.1063C16.1402 45.0352 18.9313 47 22.0347 47C26.0837 47 29.3798 43.7038 29.3798 39.6548V27.6913C28.5443 26.966 27.5619 26.4427 26.4418 26.4427C25.3125 26.4518 24.3851 26.8834 23.5037 27.7005Z" fill="#1833DB"/>
</g>
</g>
</g>
</g>
<defs>
<filter id="filter0_d_0_1" x="-25" y="-24" width="356" height="103" filterUnits="userSpaceOnUse" color-interpolation-filters="sRGB">
<feFlood flood-opacity="0" result="BackgroundImageFix"/>
<feColorMatrix in="SourceAlpha" type="matrix" values="0 0 0 0 0 0 0 0 0 0 0 0 0 0 0 0 0 0 127 0" result="hardAlpha"/>
<feOffset dy="4"/>
<feGaussianBlur stdDeviation="5"/>
<feComposite in2="hardAlpha" operator="out"/>
<feColorMatrix type="matrix" values="0 0 0 0 0 0 0 0 0 0 0 0 0 0 0 0 0 0 0.1 0"/>
<feBlend mode="normal" in2="BackgroundImageFix" result="effect1_dropShadow_0_1"/>
<feBlend mode="normal" in="SourceGraphic" in2="effect1_dropShadow_0_1" result="shape"/>
</filter>
</defs>
</svg>
